:FULLY-SPECIFIED
:FORCE-ALL-JOINTS-BE-3DOF
:DEGREES
243
root 9.19908 16.24 -2.52989 10.0127 -4.72718 -3.58026
lfemur -46.6301 9.53242 -21.6737
ltibia 42.4815 0 0
lfoot -5.34629 4.97013 0
ltoes -2.15157 0 0
rfemur 17.7793 3.48442 23.4744
rtibia 14.1566 0 0
rfoot 6.66906 4.33077 0
rtoes -17.4794 0 0
lowerback -7.08665 2.01915 0.557561
upperback -2.60157 2.5985 2.30554
thorax 1.20146 1.30757 2.26682
lowerneck -18.7366 -6.1095 -14.0899
upperneck 17.0015 -7.72478 15.0682
head 9.64642 -2.98616 6.56583
lclavicle 1.03513e-14 1.19271e-14 0
lhumerus -47.3946 -5.1064 89.0477
lradius 19.8335 0 0
lwrist -5.79239 0 0
lhand -7.42776 -23.4292 0
lfingers 7.12502 0 0
lthumb 18.4594 5.71496 0
rclavicle 1.03513e-14 1.19271e-14 0
rhumerus -45.9237 9.12654 -87.4827
rradius 43.7695 0 0
rwrist -23.6022 0 0
rhand -30.6533 -22.541 0
rfingers 7.12502 0 0
rthumb -3.94826 -52.4817 0
244
root 9.23821 16.2697 -2.3725 9.95009 -5.009 -3.13518
lfemur -45.8161 9.53815 -22.234
ltibia 42.386 0 0
lfoot -6.03012 5.05624 0
ltoes -1.78028 0 0
rfemur 15.8854 2.95587 22.5443
rtibia 18.316 0 0
rfoot 7.39233 4.46883 0
rtoes -16.9533 0 0
lowerback -6.91131 2.02781 0.249171
upperback -2.71859 2.63735 2.16588
thorax 0.975013 1.32986 2.28808
lowerneck -18.6709 -6.04502 -14.0557
upperneck 17.1204 -7.63786 14.9474
head 9.65329 -2.95775 6.53273
lclavicle 2.8979e-15 7.55382e-15 0
lhumerus -46.9855 -5.02056 88.8425
lradius 19.8643 0 0
lwrist -6.16981 0 0
lhand -7.41125 -23.2143 0
lfingers 7.12502 0 0
lthumb 18.4753 5.92829 0
rclavicle 2.8979e-15 7.55382e-15 0
rhumerus -46.145 8.90577 -87.312
rradius 42.9674 0 0
rwrist -23.1841 0 0
rhand -30.2779 -22.5373 0
rfingers 7.12502 0 0
rthumb -3.58577 -52.484 0
245
root 9.27734 16.2993 -2.21512 9.88752 -5.29081 -2.69009
lfemur -45.002 9.54387 -22.7943
ltibia 42.2904 0 0
lfoot -6.71394 5.14235 0
ltoes -1.40898 0 0
rfemur 13.9915 2.42733 21.6142
rtibia 22.4755 0 0
rfoot 8.1156 4.60688 0
rtoes -16.4272 0 0
lowerback -6.73597 2.03647 -0.059218
upperback -2.83562 2.67621 2.02623
thorax 0.748565 1.35215 2.30933
lowerneck -18.6052 -5.98055 -14.0215
upperneck 17.2393 -7.55094 14.8267
head 9.66017 -2.92934 6.49963
lclavicle -4.5555e-15 3.18055e-15 0
lhumerus -46.5763 -4.93472 88.6373
lradius 19.8951 0 0
lwrist -6.54723 0 0
lhand -7.39475 -22.9995 0
lfingers 7.12502 0 0
lthumb 18.4911 6.14162 0
rclavicle -4.5555e-15 3.18055e-15 0
rhumerus -46.3663 8.685 -87.1414
rradius 42.1653 0 0
rwrist -22.766 0 0
rhand -29.9025 -22.5335 0
rfingers 7.12502 0 0
rthumb -3.22329 -52.4864 0
246
root 9.31647 16.3289 -2.05774 9.82495 -5.57262 -2.245
lfemur -44.188 9.5496 -23.3546
ltibia 42.1948 0 0
lfoot -7.39776 5.22847 0
ltoes -1.03769 0 0
rfemur 12.0976 1.89879 20.6842
rtibia 26.6349 0 0
rfoot 8.83886 4.74494 0
rtoes -15.9012 0 0
lowerback -6.56063 2.04512 -0.367608
upperback -2.95264 2.71506 1.88657
thorax 0.522116 1.37445 2.33058
lowerneck -18.5394 -5.91608 -13.9872
upperneck 17.3581 -7.46401 14.706
head 9.66704 -2.90093 6.46652
lclavicle -1.20089e-14 -1.19271e-15 0
lhumerus -46.1671 -4.84888 88.4321
lradius 19.9258 0 0
lwrist -6.92465 0 0
lhand -7.37824 -22.7846 0
lfingers 7.12502 0 0
lthumb 18.507 6.35494 0
rclavicle -1.20089e-14 -1.19271e-15 0
rhumerus -46.5875 8.46424 -86.9707
rradius 41.3632 0 0
rwrist -22.3478 0 0
rhand -29.5272 -22.5298 0
rfingers 7.12502 0 0
rthumb -2.86081 -52.4888 0
247
root 9.3556 16.3586 -1.90036 9.76238 -5.85443 -1.79992
lfemur -43.374 9.55533 -23.9149
ltibia 42.0992 0 0
lfoot -8.08158 5.31458 0
ltoes -0.666402 0 0
rfemur 10.2037 1.37025 19.7541
rtibia 30.7944 0 0
rfoot 9.56213 4.88299 0
rtoes -15.3751 0 0
lowerback -6.38529 2.05378 -0.675997
upperback -3.06967 2.75391 1.74692
thorax 0.295667 1.39674 2.35183
lowerneck -18.4737 -5.85161 -13.953
upperneck 17.477 -7.37709 14.5853
head 9.67392 -2.87252 6.43342
lclavicle -1.94623e-14 -5.56597e-15 0
lhumerus -45.758 -4.76304 88.2269
lradius 19.9566 0 0
lwrist -7.30207 0 0
lhand -7.36173 -22.5698 0
lfingers 7.12502 0 0
lthumb 18.5229 6.56827 0
rclavicle -1.94623e-14 -5.56597e-15 0
rhumerus -46.8088 8.24347 -86.8
rradius 40.5611 0 0
rwrist -21.9297 0 0
rhand -29.1518 -22.5261 0
rfingers 7.12502 0 0
rthumb -2.49833 -52.4912 0
248
root 9.3887 16.3907 -1.76269 9.60398 -6.09992 -1.42062
lfemur -42.315 9.4449 -24.3247
ltibia 41.5388 0 0
lfoot -8.46813 5.54882 0
ltoes -0.181947 0 0
rfemur 8.60271 1.02674 19.1593
rtibia 33.8131 0 0
rfoot 10.0349 4.00105 0
rtoes -16.125 0 0
lowerback -6.28088 2.01114 -0.961008
upperback -2.93064 2.71247 1.66796
thorax 0.373724 1.37534 2.42696
lowerneck -18.8438 -5.79592 -13.8355
upperneck 17.6284 -7.27393 14.4654
head 9.76907 -2.8149 6.38906
lclavicle -1.86558e-14 -7.48756e-15 0
lhumerus -44.9643 -5.1699 88.3792
lradius 20.1534 0 0
lwrist -6.65946 0 0
lhand -7.54639 -22.5677 0
lfingers 7.12502 0 0
lthumb 18.3452 6.58674 0
rclavicle -1.86558e-14 -7.48756e-15 0
rhumerus -46.6486 8.35379 -86.8059
rradius 40.278 0 0
rwrist -21.8473 0 0
rhand -29.7361 -23.5656 0
rfingers 7.12502 0 0
rthumb -3.06254 -53.5195 0
249
root 9.4218 16.4227 -1.62502 9.44557 -6.3454 -1.04131
lfemur -41.2559 9.33447 -24.7344
ltibia 40.9784 0 0
lfoot -8.85469 5.78305 0
ltoes 0.302509 0 0
rfemur 7.00172 0.683231 18.5645
rtibia 36.8319 0 0
rfoot 10.5076 3.11911 0
rtoes -16.8748 0 0
lowerback -6.17647 1.96851 -1.24602
upperback -2.79161 2.67102 1.58899
thorax 0.451781 1.35394 2.5021
lowerneck -19.2139 -5.74023 -13.7181
upperneck 17.7798 -7.17078 14.3455
head 9.86421 -2.75727 6.3447
lclavicle -1.78492e-14 -9.40915e-15 0
lhumerus -44.1706 -5.57677 88.5315
lradius 20.3503 0 0
lwrist -6.01686 0 0
lhand -7.73105 -22.5656 0
lfingers 7.12502 0 0
lthumb 18.1675 6.6052 0
rclavicle -1.78492e-14 -9.40915e-15 0
rhumerus -46.4883 8.46411 -86.8119
rradius 39.995 0 0
rwrist -21.765 0 0
rhand -30.3204 -24.6051 0
rfingers 7.12502 0 0
rthumb -3.62674 -54.5479 0
250
root 9.4549 16.4548 -1.48735 9.28717 -6.59089 -0.662006
lfemur -40.1968 9.22404 -25.1441
ltibia 40.4181 0 0
lfoot -9.24124 6.01729 0
ltoes 0.786964 0 0
rfemur 5.40072 0.339721 17.9698
rtibia 39.8506 0 0
rfoot 10.9804 2.23717 0
rtoes -17.6246 0 0
lowerback -6.07206 1.92588 -1.53103
upperback -2.65258 2.62958 1.51003
thorax 0.529838 1.33254 2.57723
lowerneck -19.5841 -5.68454 -13.6006
upperneck 17.9312 -7.06762 14.2256
head 9.95936 -2.69965 6.30034
lclavicle -1.70427e-14 -1.13307e-14 0
lhumerus -43.377 -5.98363 88.6838
lradius 20.5472 0 0
lwrist -5.37425 0 0
lhand -7.91571 -22.5634 0
lfingers 7.12502 0 0
lthumb 17.9899 6.62367 0
rclavicle -1.70427e-14 -1.13307e-14 0
rhumerus -46.328 8.57442 -86.8178
rradius 39.7119 0 0
rwrist -21.6826 0 0
rhand -30.9047 -25.6446 0
rfingers 7.12502 0 0
rthumb -4.19095 -55.5763 0
251
root 9.48799 16.4869 -1.34969 9.12877 -6.83638 -0.282701
lfemur -39.1378 9.1136 -25.5539
ltibia 39.8577 0 0
lfoot -9.62779 6.25153 0
ltoes 1.27142 0 0
rfemur 3.79973 -0.00378867 17.375
rtibia 42.8693 0 0
rfoot 11.4531 1.35523 0
rtoes -18.3745 0 0
lowerback -5.96764 1.88324 -1.81604
upperback -2.51355 2.58814 1.43107
thorax 0.607895 1.31114 2.65236
lowerneck -19.9542 -5.62884 -13.4832
upperneck 18.0826 -6.96446 14.1058
head 10.0545 -2.64203 6.25598
lclavicle -1.62362e-14 -1.32523e-14 0
lhumerus -42.5833 -6.3905 88.8361
lradius 20.744 0 0
lwrist -4.73164 0 0
lhand -8.10038 -22.5613 0
lfingers 7.12502 0 0
lthumb 17.8122 6.64214 0
rclavicle -1.62362e-14 -1.32523e-14 0
rhumerus -46.1678 8.68474 -86.8238
rradius 39.4288 0 0
rwrist -21.6002 0 0
rhand -31.4889 -26.684 0
rfingers 7.12502 0 0
rthumb -4.75516 -56.6046 0
